<?xml version="1.0" encoding="utf-8"?>
<!-- Generator: Adobe Illustrator 16.0.3, SVG Export Plug-In . SVG Version: 6.00 Build 0)  -->
<!DOCTYPE svg PUBLIC "-//W3C//DTD SVG 1.1//EN" "http://www.w3.org/Graphics/SVG/1.1/DTD/svg11.dtd">
<svg version="1.1" id="Layer_1" xmlns="http://www.w3.org/2000/svg" xmlns:xlink="http://www.w3.org/1999/xlink" x="0px" y="0px"
	 width="166px" height="273px" viewBox="0 0 166 273" enable-background="new 0 0 166 273" xml:space="preserve">
		<style>
	#div3 {background-color: #a2293a;}

	</style>
	 
	 
<g> id = "div3"
	<g> 
		<path fill="#FFFFFF" d="M17.841,263.524c-0.239-0.01-0.438-0.018-0.607-0.018l-0.875,0.008l-0.958-0.045
			c-0.553-0.006-0.947-0.016-1.188-0.016c-1.087,0-1.79,0.025-2.117,0.076c-0.037,0.053-0.069,0.096-0.069,0.121l0.144,0.24
			c0.064,0.008,0.11,0.014,0.153,0.021l0.251-0.008l0.373,0.027c0.76,0.061,1.211,0.166,1.356,0.354
			c0.142,0.178,0.214,0.811,0.214,1.883c0,0.65-0.045,1.086-0.125,1.307c-0.088,0.23-0.244,0.438-0.477,0.605
			c-0.224,0.182-0.566,0.324-1.02,0.428c-0.454,0.113-0.874,0.162-1.248,0.162c-0.582,0-1.02-0.033-1.308-0.105
			c-0.52-0.133-0.969-0.322-1.343-0.582c-0.569-0.381-1.069-0.84-1.489-1.367c-0.423-0.533-0.746-1.096-0.98-1.711
			c-0.23-0.607-0.346-1.299-0.346-2.066c0-1.328,0.317-2.459,0.947-3.406c0.63-0.938,1.389-1.596,2.274-1.977
			c0.607-0.268,1.463-0.404,2.562-0.404c0.895,0,1.657,0.238,2.28,0.709c0.614,0.48,1.137,1.188,1.556,2.133l0.264-0.049
			c0-0.152-0.017-0.445-0.06-0.879l-0.103-1.422c-0.398-0.238-0.942-0.449-1.626-0.635c-0.676-0.189-1.556-0.271-2.627-0.271
			c-1.556,0-2.782,0.225-3.688,0.68c-1.284,0.656-2.223,1.51-2.793,2.549c-0.574,1.053-0.86,2.117-0.86,3.207
			c0,0.877,0.175,1.732,0.548,2.574c0.246,0.574,0.653,1.145,1.22,1.707c0.571,0.559,1.249,1.002,2.037,1.309
			c0.791,0.314,1.806,0.471,3.041,0.471c0.761,0,1.561-0.066,2.384-0.215c0.441-0.068,0.936-0.221,1.48-0.436
			c0.376-0.154,0.628-0.281,0.744-0.393c0.119-0.107,0.2-0.23,0.238-0.367c0.073-0.232,0.095-0.768,0.095-1.604l-0.006-1.23
			c0-0.402,0.032-0.631,0.095-0.703c0.125-0.143,0.288-0.213,0.496-0.213l0.607,0.01c0.146,0,0.343-0.025,0.612-0.084
			c0.028-0.109,0.041-0.195,0.041-0.268c0-0.031-0.002-0.057-0.019-0.078C17.91,263.538,17.89,263.53,17.841,263.524z"/>
		<path fill="#FFFFFF" d="M29.166,268.288c-0.258-0.129-0.481-0.283-0.661-0.475c-0.182-0.189-0.512-0.662-0.98-1.412l-1.19-2.035
			c-0.382-0.625-0.673-1.168-0.881-1.619c0.113-0.088,0.281-0.17,0.483-0.289c1.196-0.594,1.802-1.473,1.802-2.621
			c0-0.598-0.168-1.156-0.501-1.639c-0.329-0.488-0.77-0.84-1.323-1.047c-0.562-0.201-1.534-0.303-2.926-0.303l-2.465,0.025h-0.767
			c-0.122,0-0.253,0.008-0.393,0.023c-0.143,0.012-0.226,0.025-0.254,0.025c-0.227,0-0.373,0.033-0.432,0.088
			c-0.022,0.074-0.034,0.127-0.034,0.174c0,0.064,0.025,0.113,0.077,0.146c0.052,0.027,0.313,0.08,0.802,0.146
			c0.473,0.061,0.771,0.174,0.889,0.336c0.113,0.152,0.168,0.586,0.164,1.295l-0.006,1.684l0.006,2.346l-0.02,1.256l0.029,1.119
			c0,0.256-0.005,0.531-0.016,0.805c-0.052,0.971-0.081,1.535-0.081,1.688v0.109c-0.064,0.158-0.142,0.242-0.22,0.273
			c-0.121,0.045-0.632,0.121-1.538,0.227c-0.089,0.074-0.125,0.141-0.125,0.195l0.019,0.092l0.183,0.035
			c0.511-0.018,0.791-0.025,0.847-0.025l1.244,0.008l1.273-0.018c0.073,0,0.168,0.01,0.291,0.01
			c0.225,0.018,0.621,0.018,1.178,0.018c0.072,0,0.188-0.01,0.356-0.045c0-0.102-0.023-0.186-0.075-0.246l-0.378-0.104
			c-0.584-0.137-0.932-0.246-1.059-0.314c-0.119-0.078-0.206-0.174-0.258-0.295c-0.053-0.201-0.081-0.373-0.071-0.492v-3.199
			c0-0.619,0.013-1.027,0.027-1.225l0.267,0.01l0.79-0.01c0.198,0,0.358,0.037,0.486,0.096c0.115,0.068,0.271,0.23,0.457,0.496
			l1.386,2.525c0.602,1.025,1.117,1.955,1.563,2.803c0.142,0.016,0.256,0.016,0.335,0.016c1.152,0,2.154,0,3.011-0.016
			c0.002-0.051,0.002-0.096,0.002-0.137c0-0.037,0-0.088-0.002-0.146C29.856,268.526,29.422,268.405,29.166,268.288z
			 M24.126,262.343c-0.581,0.115-1.104,0.164-1.554,0.164c-0.083,0-0.205-0.008-0.372-0.014c-0.025-0.758-0.034-1.369-0.034-1.855
			l0.006-0.721l-0.049-1.748c0-0.168,0.011-0.418,0.043-0.74c0.267-0.027,0.481-0.027,0.652-0.027c0.685,0,1.271,0.113,1.765,0.359
			c0.488,0.24,0.829,0.543,1.042,0.902c0.273,0.482,0.403,0.924,0.403,1.352c0,0.385-0.088,0.76-0.261,1.115
			c-0.17,0.361-0.386,0.637-0.639,0.813C24.875,262.132,24.542,262.269,24.126,262.343z"/>
		<path fill="#FFFFFF" d="M67.414,259.255c-0.515-0.658-1.032-1.135-1.539-1.441c-0.515-0.316-1.082-0.557-1.708-0.734
			c-0.624-0.17-1.266-0.264-1.919-0.264c-0.977,0-1.778,0.107-2.414,0.314c-0.907,0.299-1.611,0.641-2.126,1.033
			c-0.505,0.385-0.946,0.869-1.308,1.449c-0.361,0.582-0.614,1.119-0.774,1.615c-0.15,0.494-0.224,1.055-0.224,1.697
			c0,0.768,0.117,1.486,0.355,2.141c0.234,0.662,0.579,1.256,1.041,1.793c0.453,0.547,0.903,0.955,1.34,1.232
			c0.425,0.281,0.972,0.523,1.622,0.711c0.646,0.193,1.385,0.289,2.217,0.289c0.814,0,1.573-0.113,2.278-0.336
			c0.707-0.221,1.292-0.512,1.77-0.871c0.708-0.537,1.217-1.004,1.512-1.424c0.368-0.533,0.639-1.066,0.799-1.605
			c0.153-0.545,0.23-1.229,0.23-2.047c0-0.727-0.112-1.426-0.354-2.109C68.031,260.177,67.765,259.7,67.414,259.255z M66.639,264.97
			c-0.146,0.67-0.345,1.236-0.589,1.67c-0.245,0.428-0.592,0.82-1.024,1.152c-0.436,0.342-0.935,0.59-1.504,0.734
			c-0.566,0.145-1.105,0.223-1.629,0.223c-0.565,0-1.087-0.104-1.579-0.301c-0.5-0.195-0.94-0.477-1.341-0.854
			c-0.389-0.367-0.729-0.797-1-1.273c-0.266-0.479-0.48-1.045-0.638-1.705c-0.156-0.658-0.235-1.244-0.235-1.758
			c0-0.488,0.08-1.061,0.235-1.697c0.157-0.645,0.385-1.234,0.679-1.77c0.307-0.531,0.628-0.939,0.977-1.229
			s0.799-0.527,1.338-0.719c0.542-0.188,1.101-0.283,1.661-0.283c0.707,0,1.356,0.137,1.978,0.414
			c0.615,0.27,1.144,0.648,1.579,1.145c0.438,0.5,0.753,1.055,0.946,1.689c0.25,0.826,0.371,1.672,0.371,2.516
			C66.863,263.601,66.789,264.286,66.639,264.97z"/>
		<path fill="#FFFFFF" d="M52.202,257.212c-0.584-0.27-1.364-0.416-2.342-0.416c-0.558,0-1.039,0.02-1.457,0.061l-1.595,0.094
			c-0.446,0.025-0.73,0.033-0.862,0.033c-0.099,0-0.272,0-0.533-0.008c-0.484-0.025-0.831-0.033-1.041-0.033
			c-0.037,0-0.11,0.008-0.222,0.023c-0.033,0.068-0.05,0.129-0.05,0.18c0,0.043,0.017,0.092,0.042,0.172
			c0.921,0.127,1.5,0.289,1.73,0.504c0.138,0.119,0.208,0.402,0.208,0.842v0.164c0,1.16,0.01,2.297,0.039,3.422
			c0.06,2.396,0.091,3.963,0.091,4.699c0,0.23,0,0.406-0.009,0.543c-0.001,0.189-0.007,0.309-0.007,0.369
			c0,0.254-0.036,0.428-0.093,0.512c-0.044,0.051-0.163,0.111-0.362,0.162l-1.222,0.24l0.01,0.238
			c0.305-0.008,0.483-0.018,0.542-0.018l0.988,0.029l1.642-0.063c0.306,0,0.728,0.023,1.264,0.086
			c0.271,0.023,0.453,0.043,0.522,0.043c0.113,0,0.202-0.02,0.24-0.043c0.042-0.023,0.073-0.086,0.1-0.18
			c-0.042-0.059-0.08-0.104-0.131-0.119c-0.028-0.014-0.22-0.061-0.551-0.146c-0.72-0.162-1.163-0.264-1.313-0.311
			c-0.048-0.158-0.07-0.379-0.07-0.68c0-0.121,0.007-0.273,0.019-0.434c0.016-0.172,0.024-0.291,0.024-0.354l-0.119-4.266v-0.529
			c-0.037-0.309-0.061-1.102-0.061-2.377c0-0.348,0.015-0.602,0.024-0.768l0.01-0.193l-0.035-1.051l0.015-0.137
			c0.142-0.104,0.6-0.162,1.375-0.162c0.243,0,0.594,0.053,1.048,0.154c0.45,0.109,0.789,0.238,1,0.395
			c0.384,0.271,0.701,0.641,0.937,1.1c0.235,0.461,0.352,0.93,0.352,1.418c0,0.492-0.112,0.959-0.335,1.418
			c-0.23,0.449-0.56,0.793-0.998,1.031c-0.433,0.246-0.902,0.363-1.397,0.363c-0.328,0-0.589-0.027-0.808-0.107
			c-0.096-0.041-0.182-0.061-0.269-0.061c-0.038,0.02-0.079,0.051-0.104,0.094c0.024,0.098,0.096,0.172,0.218,0.258
			c0.281,0.186,0.526,0.314,0.752,0.375c0.209,0.066,0.483,0.102,0.81,0.102c1.162,0,2.082-0.357,2.771-1.068
			c0.68-0.707,1.025-1.553,1.025-2.525c0-0.588-0.157-1.18-0.471-1.775C53.227,257.923,52.781,257.489,52.202,257.212z"/>
		<path fill="#FFFFFF" d="M41.348,256.95c-0.039,0-0.265-0.016-0.671-0.041c-0.28-0.027-0.541-0.035-0.785-0.035
			c-0.239,0-0.482,0.016-0.724,0.035c0.006,0.088,0.028,0.186,0.054,0.275c0.684,0.133,1.146,0.293,1.385,0.467
			c0.116,0.084,0.198,0.201,0.259,0.365c0.058,0.164,0.113,0.689,0.158,1.596l0.141,2.693c0,0.047-0.01,0.221-0.024,0.508
			c-0.014,0.291-0.017,0.488-0.017,0.586v0.268c0.017,0.471,0.026,0.719,0.026,0.752c0,1.102-0.122,1.922-0.368,2.461
			c-0.25,0.535-0.652,0.963-1.215,1.262c-0.563,0.307-1.375,0.461-2.438,0.461c-0.473,0-0.966-0.086-1.464-0.264
			c-0.502-0.17-0.877-0.395-1.127-0.668c-0.245-0.266-0.424-0.604-0.536-1.021c-0.105-0.41-0.164-1.469-0.167-3.17l-0.027-4.633
			l0.094-1.066c0.025-0.115,0.093-0.197,0.208-0.275c0.167-0.104,0.39-0.162,0.678-0.162c0.061,0,0.147,0.006,0.247,0.006
			c0.109,0.016,0.178,0.016,0.22,0.016c0.104,0,0.234-0.016,0.394-0.066c0.019-0.066,0.028-0.127,0.028-0.16
			c0-0.059-0.012-0.141-0.045-0.248l-2.456,0.033h-1.486l-0.628,0.012h-0.235c-0.101,0-0.185,0.021-0.254,0.063
			c-0.042,0.037-0.064,0.082-0.064,0.141c0,0.047,0.017,0.094,0.037,0.145c0.11,0.082,0.373,0.129,0.779,0.129l0.556-0.01
			c0.129,0,0.229,0.055,0.301,0.154c0.098,0.146,0.145,0.402,0.145,0.758v1.43l-0.026,2.113l0.026,2.607v0.654
			c0,0.889,0.118,1.563,0.33,2.025c0.162,0.348,0.454,0.699,0.884,1.049c0.416,0.35,0.988,0.631,1.706,0.855
			c0.394,0.117,1.039,0.188,1.931,0.188c0.569,0,1.14-0.102,1.721-0.291c0.589-0.18,1.049-0.418,1.405-0.717
			c0.346-0.283,0.61-0.604,0.795-0.973c0.187-0.359,0.327-0.854,0.425-1.467c0.067-0.443,0.103-1.271,0.103-2.504l-0.026-0.975
			l0.006-0.768l-0.059-1.939c-0.027-0.646-0.04-1.063-0.04-1.26c0-0.357,0.077-0.607,0.224-0.746
			c0.146-0.135,0.608-0.248,1.372-0.348l0.016-0.34H42.83L41.348,256.95z"/>
		<path fill="#FFFFFF" d="M103.739,267.952c-0.246-0.025-0.43-0.092-0.543-0.186c-0.063-0.035-0.158-0.188-0.283-0.453
			c-0.232-0.488-0.404-0.875-0.512-1.203c-0.225-0.59-0.395-1.025-0.516-1.322c-0.215-0.49-0.467-1.121-0.758-1.887
			c-0.301-0.779-0.631-1.574-0.998-2.391l-1.631-3.861l-0.08-0.17h-0.432h-0.59l-2.227,5.826l-1.891,4.967
			c-0.148,0.279-0.277,0.459-0.381,0.537c-0.105,0.074-0.395,0.162-0.873,0.256c-0.307,0.053-0.51,0.104-0.629,0.137l-0.023,0.639
			h0.172c0.42,0,0.861-0.031,1.322-0.105l0.387-0.072c1.467,0.105,2.385,0.16,2.779,0.16c0.012-0.074,0.02-0.141,0.02-0.221
			c0-0.086-0.004-0.238-0.014-0.469c-0.391-0.053-0.613-0.088-0.676-0.102c-0.396-0.049-0.67-0.127-0.818-0.25
			c-0.088-0.066-0.127-0.188-0.127-0.35c0-0.119,0.057-0.34,0.178-0.668c0.414-1.178,0.691-1.91,0.824-2.209l3.576,0.008l0.74,1.832
			l0.371,0.93c0.033,0.08,0.049,0.164,0.049,0.254c0,0.08-0.033,0.152-0.088,0.213c-0.059,0.045-0.24,0.102-0.549,0.188
			l-1.045,0.223c-0.023,0.201-0.027,0.412-0.027,0.631l0.463-0.018l1.594-0.08c0.217-0.023,0.576-0.031,1.063-0.031
			c0.447,0,0.953,0.031,1.506,0.07c0.553,0.041,1.066,0.066,1.533,0.066c0.004-0.092,0.004-0.158,0.004-0.203
			c0-0.104-0.014-0.256-0.049-0.461C104.269,268.065,103.997,267.983,103.739,267.952z M98.372,263.601
			c-0.266,0-1.121-0.01-2.58-0.025l1.355-3.629c0.189,0.396,0.424,0.955,0.729,1.689c0.301,0.744,0.545,1.393,0.734,1.955
			L98.372,263.601z"/>
		<path fill="#FFFFFF" d="M147.608,259.841c0.025-0.107,0.039-0.254,0.039-0.414l0.012-0.479l-0.012-0.838
			c0-0.873-0.006-1.518-0.014-1.949c-0.121-0.004-0.211-0.014-0.275-0.014l-0.416,0.014c-0.047,0.105-0.074,0.182-0.102,0.232
			c-0.094,0.248-0.18,0.402-0.264,0.463l-0.551,0.078h-2.898l-2.117-0.006l-1.137,0.006l-0.191,0.016
			c-0.375,0.006-0.801,0.006-1.285,0.006c-0.77,0-1.201-0.006-1.283-0.021c-0.088-0.098-0.229-0.297-0.402-0.602
			c-0.021-0.033-0.047-0.082-0.094-0.148h-0.578c-0.049,0.115-0.117,0.363-0.219,0.725c-0.344,1.211-0.613,2.018-0.803,2.432
			c0.074,0.092,0.266,0.211,0.553,0.367c0.072,0,0.189-0.105,0.344-0.301c0.541-0.701,0.941-1.127,1.207-1.283
			c0.199-0.102,0.592-0.166,1.184-0.166c1.07,0,1.697,0.016,1.893,0.043c0.061,0.006,0.104,0.023,0.131,0.053
			c0.029,0.023,0.053,0.066,0.072,0.127c0.035,0.199,0.051,0.793,0.051,1.766l0.051,3.551c0,1.631-0.023,2.834-0.066,3.578
			c-0.014,0.197-0.055,0.35-0.111,0.469c-0.252,0.133-0.707,0.27-1.354,0.428c-0.383,0.086-0.641,0.221-0.777,0.4v0.076l0.008,0.215
			c0.006,0.049,0.014,0.119,0.023,0.215c0.104,0,0.334-0.01,0.689-0.037c0.914-0.072,1.465-0.105,1.65-0.105
			c1.182,0,2,0.014,2.449,0.066c0.451,0.039,0.998,0.066,1.641,0.066c0.09,0,0.199,0,0.34-0.01c0.02-0.109,0.031-0.188,0.031-0.244
			c0-0.049-0.018-0.182-0.047-0.412c-0.152-0.051-0.314-0.1-0.504-0.145c-0.416-0.105-0.646-0.145-0.697-0.152
			c-0.27-0.045-0.459-0.078-0.551-0.123c-0.08-0.223-0.117-0.545-0.117-0.971l0.008-1.225l-0.029-2.975v-2.762l-0.014-1.254
			c0-0.154,0.02-0.35,0.053-0.596c0.264-0.027,0.48-0.043,0.656-0.043c1.18,0,1.838,0.016,1.996,0.049
			c0.098,0.027,0.189,0.078,0.262,0.162c0.057,0.055,0.17,0.311,0.361,0.771c0.189,0.459,0.369,0.811,0.529,1.059
			C147.126,259.978,147.356,259.927,147.608,259.841z"/>
		<path fill="#FFFFFF" d="M89.593,267.731c-0.061-0.045-0.086-0.137-0.096-0.287c0-0.051-0.008-0.135-0.02-0.234
			c-0.061-0.814-0.104-1.473-0.123-1.994c-0.084-2.348-0.133-3.658-0.154-3.916l-0.158-2.865v-0.145c0-0.188,0.127-0.34,0.383-0.469
			c0.365-0.18,0.842-0.307,1.438-0.393c0.006-0.111,0.006-0.197,0.006-0.258l0.018-0.281c0-0.041-0.002-0.119-0.008-0.205
			c-0.086-0.008-0.16-0.016-0.223-0.016c-0.051,0-0.27,0.016-0.676,0.051c-0.396,0.035-0.92,0.051-1.574,0.059
			c-0.451,0.008-0.846,0.027-1.174,0.051c-0.129,0-0.227,0.008-0.287,0.008c-0.168,0-0.285,0.025-0.338,0.072
			c-0.023,0.033-0.168,0.328-0.422,0.904c-0.264,0.561-0.449,0.98-0.561,1.262c-0.707,1.752-1.27,3.047-1.682,3.9
			c-0.244,0.488-0.477,1.018-0.73,1.588c-0.08,0.182-0.17,0.342-0.26,0.494c-0.086-0.186-0.182-0.406-0.299-0.646
			c-0.113-0.248-0.217-0.469-0.314-0.676c-0.105-0.197-0.201-0.416-0.297-0.631c-0.07-0.146-0.121-0.256-0.162-0.332l-1.459-3.178
			l-0.104-0.254c-0.38-0.877-0.686-1.545-0.914-2.01c-0.108-0.201-0.219-0.365-0.32-0.494l-0.435-0.014
			c-0.108-0.008-0.202-0.018-0.259-0.027l-2.744-0.094c-0.313,0-0.587,0.018-0.818,0.023v0.303c0,0.102,0.001,0.236,0.018,0.389
			c0.102,0.027,0.241,0.061,0.416,0.098c0.696,0.127,1.1,0.266,1.2,0.398c0.107,0.141,0.154,0.652,0.154,1.529
			c0,0.047-0.007,0.17-0.014,0.377l-0.145,3.396l-0.116,3.34c-0.079,0.629-0.183,1.023-0.321,1.168
			c-0.214,0.221-0.712,0.383-1.491,0.479l-0.027,0.639c1.085-0.059,1.703-0.086,1.848-0.086c0.684,0,1.243,0.027,1.651,0.068
			c0.417,0.055,0.801,0.078,1.173,0.088v-0.691l-0.45-0.113c-0.593-0.145-0.969-0.314-1.152-0.52
			c-0.178-0.203-0.268-0.539-0.268-1.016l0.061-2.879l0.083-4.438l0.851,1.834l1.392,3.008c0.02,0.023,0.022,0.051,0.032,0.09
			l0.117,0.232c0.015,0.061,0.062,0.145,0.117,0.254c0.121,0.277,0.283,0.629,0.502,1.078c0.357,0.77,0.611,1.332,0.766,1.709
			l0.502,1.432l0.723,0.02c0.104-0.256,0.176-0.463,0.227-0.615c0.189-0.615,0.521-1.498,1.008-2.656
			c0.047-0.109,0.148-0.324,0.289-0.631c0.111-0.23,0.195-0.418,0.252-0.539l2.334-5.355c0.023,0.174,0.047,0.498,0.066,0.969
			l0.156,3.316c0.01,1.164,0.027,2.068,0.059,2.727c0.006,0.162,0.012,0.342,0.012,0.547c0,0.547-0.043,0.879-0.123,0.992
			c-0.082,0.117-0.275,0.205-0.572,0.254c-0.428,0.064-0.764,0.154-1.021,0.258l-0.021,0.646c0.107-0.008,0.219-0.014,0.328-0.031
			c0.859-0.08,1.734-0.109,2.641-0.109c0.6,0,1.24,0.029,1.92,0.109c0.678,0.076,1.107,0.1,1.275,0.1
			c0.006-0.123,0.01-0.254,0.01-0.393c0-0.051-0.004-0.117-0.01-0.223C90.216,267.952,89.653,267.776,89.593,267.731z"/>
		<path fill="#FFFFFF" d="M133.403,262.591c-0.281-0.301-0.697-0.57-1.236-0.816c-0.539-0.25-1.004-0.43-1.383-0.539
			c-1.141-0.334-1.881-0.691-2.234-1.059c-0.354-0.365-0.525-0.75-0.525-1.154c0-0.475,0.172-0.877,0.531-1.195
			c0.363-0.322,0.844-0.484,1.461-0.484c0.646,0,1.201,0.248,1.68,0.752c0.273,0.285,0.555,0.854,0.82,1.68l0.119,0.016l0.672,0.047
			l0.096-0.025c0.021-0.139,0.035-0.26,0.035-0.359c0-0.367-0.035-0.859-0.107-1.512c-0.055-0.426-0.109-0.752-0.176-0.965
			c-0.582-0.197-1.053-0.334-1.414-0.393c-0.586-0.104-1.031-0.164-1.326-0.164c-1.391,0-2.447,0.352-3.156,1.043
			c-0.707,0.701-1.066,1.539-1.066,2.537c0,0.492,0.123,1.004,0.381,1.543c0.256,0.539,0.609,0.965,1.053,1.281
			c0.447,0.314,1.24,0.684,2.391,1.09c1.146,0.404,1.857,0.729,2.113,0.977c0.441,0.395,0.654,0.82,0.654,1.279
			c0,0.387-0.121,0.734-0.369,1.059c-0.252,0.332-0.578,0.572-0.984,0.709c-0.402,0.145-0.771,0.215-1.113,0.215
			c-0.373,0-0.729-0.049-1.059-0.172c-0.316-0.119-0.6-0.273-0.834-0.469c-0.229-0.197-0.451-0.455-0.643-0.777
			c-0.088-0.146-0.281-0.564-0.578-1.266l-0.873,0.023v0.352c0,0.174,0.002,0.463,0.016,0.863c0.035,0.795,0.053,1.221,0.053,1.287
			v0.109c0.018,0.09,0.051,0.15,0.08,0.174c0.082,0.074,0.277,0.146,0.588,0.232l1.129,0.332c0.605,0.121,1.125,0.189,1.564,0.189
			c0.662,0,1.207-0.061,1.629-0.172c0.424-0.109,0.828-0.297,1.227-0.547c0.393-0.254,0.684-0.475,0.871-0.664
			c0.266-0.264,0.453-0.549,0.572-0.855c0.219-0.563,0.326-1.145,0.326-1.734c0-0.535-0.072-0.988-0.207-1.346
			C134.04,263.353,133.774,262.976,133.403,262.591z"/>
		<path fill="#FFFFFF" d="M159.755,268.177c-0.295-0.111-0.568-0.193-0.826-0.225c-0.248-0.025-0.43-0.092-0.547-0.186
			c-0.061-0.035-0.154-0.188-0.275-0.453c-0.236-0.488-0.408-0.875-0.518-1.203c-0.223-0.59-0.393-1.025-0.514-1.322
			c-0.211-0.49-0.465-1.121-0.76-1.887c-0.295-0.779-0.625-1.574-0.998-2.391l-1.627-3.861l-0.084-0.17h-0.426h-0.594l-2.219,5.826
			l-1.893,4.967c-0.148,0.279-0.283,0.459-0.383,0.537c-0.107,0.074-0.396,0.162-0.875,0.256c-0.305,0.053-0.51,0.104-0.631,0.137
			l-0.018,0.639h0.164c0.42,0,0.865-0.031,1.326-0.105l0.385-0.072c1.461,0.105,2.391,0.16,2.777,0.16
			c0.014-0.074,0.02-0.141,0.02-0.221c0-0.086-0.006-0.238-0.008-0.469c-0.387-0.053-0.615-0.088-0.668-0.102
			c-0.408-0.049-0.684-0.127-0.832-0.25c-0.084-0.066-0.123-0.188-0.123-0.35c0-0.119,0.059-0.34,0.174-0.668
			c0.422-1.178,0.693-1.91,0.824-2.209l3.584,0.008l0.732,1.832l0.371,0.93c0.031,0.08,0.047,0.164,0.047,0.254
			c0,0.08-0.027,0.152-0.094,0.213c-0.047,0.045-0.229,0.102-0.537,0.188l-1.047,0.223c-0.016,0.201-0.027,0.412-0.027,0.631
			l0.461-0.018l1.592-0.08c0.223-0.023,0.582-0.031,1.07-0.031c0.445,0,0.945,0.031,1.504,0.07c0.559,0.041,1.063,0.066,1.531,0.066
			c0.004-0.092,0.008-0.158,0.008-0.203C159.804,268.534,159.786,268.382,159.755,268.177z M153.565,263.601
			c-0.258,0-1.125-0.01-2.588-0.025l1.359-3.629c0.189,0.396,0.428,0.955,0.732,1.689c0.299,0.744,0.547,1.393,0.736,1.955
			L153.565,263.601z"/>
		<path fill="#FFFFFF" d="M123.517,256.685c-0.811,0.051-1.406,0.078-1.77,0.078c-0.086,0-0.289-0.008-0.625-0.023l-2.674-0.102
			l0.023,0.818c0.07,0.02,0.178,0.021,0.32,0.033c0.58,0.025,0.99,0.102,1.248,0.221c0.035,0.135,0.057,0.24,0.063,0.297l0.018,0.41
			l0.051,1.055l-0.027,0.516l0.02,1.248c0,0.035-0.029,0.672-0.072,1.912l0.006,0.504l-0.021,2.146l0.016,1.098
			c0,0.35-0.064,0.615-0.172,0.811c-0.201,0.107-0.504,0.213-0.906,0.307c-0.289,0.068-0.492,0.121-0.615,0.164v0.674
			c0.123-0.01,0.395-0.027,0.799-0.068c0.635-0.059,1.115-0.094,1.449-0.094l1.654,0.016c0.746,0.078,1.16,0.119,1.25,0.137
			c0.119,0.018,0.201,0.027,0.244,0.027c0.027,0,0.145,0,0.34-0.018c0.047-0.01,0.111-0.01,0.189-0.01
			c0.008-0.143,0.01-0.258,0.01-0.324c0-0.113-0.016-0.273-0.033-0.459c-0.332-0.053-0.52-0.074-0.568-0.078
			c-0.318-0.035-0.66-0.096-1.041-0.17c-0.035-0.094-0.053-0.162-0.053-0.215l0.021-0.357l-0.027-1.877l0.041-1.256l-0.014-2.477
			c0-0.564,0.014-1.381,0.031-2.432c-0.018-0.174-0.031-0.395-0.031-0.656c0-0.307,0.021-0.551,0.059-0.713
			c0.211-0.076,0.477-0.162,0.793-0.236c0.318-0.076,0.605-0.162,0.854-0.248c0.018-0.172,0.027-0.309,0.027-0.408
			c0-0.086-0.006-0.195-0.012-0.297C124.259,256.638,123.968,256.657,123.517,256.685z"/>
		<path fill="#FFFFFF" d="M117.179,268.058c-0.359-0.139-0.602-0.258-0.711-0.371c-0.121-0.107-0.371-0.482-0.742-1.121
			l-1.494-2.436c-0.164-0.264-0.375-0.582-0.639-0.957c-0.127-0.172-0.223-0.324-0.303-0.461c0.85-0.254,1.479-0.648,1.893-1.162
			c0.396-0.521,0.607-1.09,0.607-1.721c0-0.848-0.379-1.596-1.137-2.246c-0.752-0.648-1.773-0.984-3.059-0.984
			c-0.809,0-1.586,0.043-2.314,0.121l-1.172,0.051l-0.494,0.025c-0.037,0-0.281-0.018-0.734-0.057c-0.434,0-0.727,0.016-0.867,0.016
			c-0.271,0-0.553,0.023-0.863,0.074l-0.039,0.105l0.02,0.563c0.164,0.025,0.506,0.059,1.004,0.094l0.559,0.111
			c0.031,0.355,0.045,1.193,0.045,2.492c0,0.598-0.006,1.227-0.023,1.912l-0.021,0.506l0.021,0.875l-0.039,1.121l0.01,2.09
			c0,0.512-0.008,0.82-0.025,0.904c-0.002,0.057-0.021,0.145-0.049,0.273c-0.258,0.096-0.545,0.156-0.869,0.205
			c-0.311,0.037-0.561,0.102-0.721,0.191c-0.02,0.115-0.027,0.223-0.027,0.289c0,0.041,0.008,0.143,0.02,0.297h0.402
			c0.322,0,0.688-0.018,1.084-0.066l1.287-0.088c0.074,0,0.191-0.006,0.354-0.006c0.252,0,1.047,0.057,2.393,0.18l0.377-0.02
			c0.037,0,0.109,0.01,0.23,0.01c0.023-0.156,0.037-0.385,0.037-0.691c-0.354-0.145-0.766-0.258-1.26-0.363
			c-0.281-0.057-0.508-0.133-0.688-0.234l0.061-1.77l-0.043-2.084c0-0.238,0.004-0.459,0.025-0.639
			c0.297-0.014,0.514-0.025,0.637-0.025c0.459,0,0.783,0.068,0.971,0.197c0.119,0.086,0.336,0.434,0.656,1.039
			c0.668,1.326,1.135,2.289,1.414,2.906c0.102,0.229,0.289,0.578,0.557,1.049l0.313,0.615c0.1-0.018,0.24-0.027,0.404-0.045
			c0.363-0.041,0.59-0.068,0.654-0.068l0.939,0.014c0.287,0,0.537,0.014,0.74,0.047h0.383l0.492,0.063l0.188-0.01h0.254
			c0.004-0.086,0.008-0.164,0.008-0.213c0-0.09-0.018-0.182-0.057-0.283C117.677,268.272,117.458,268.159,117.179,268.058z
			 M112.163,261.646c-0.441,0.381-1.195,0.57-2.262,0.57c-0.145,0-0.355-0.01-0.654-0.02v-0.26c0.002-0.459,0.008-0.828,0.025-1.109
			l-0.006-1.023l0.023-0.771l-0.018-1.262l0.018-0.18c0.211-0.035,0.449-0.053,0.74-0.053c0.604,0,1.043,0.053,1.32,0.137
			c0.371,0.129,0.672,0.314,0.904,0.559c0.162,0.166,0.299,0.426,0.406,0.773c0.111,0.352,0.162,0.717,0.162,1.111
			C112.823,260.757,112.604,261.271,112.163,261.646z"/>
	</g>
	<rect x="4.523" y="243.561" fill="#FFFFFF" width="155.493" height="0.893"/>
	<g>
		<path fill="#FFFFFF" d="M24.603,198.356c-0.847-0.521-1.824-0.847-2.932-1.042c-1.107-0.195-2.67-0.261-4.82-0.261h-0.391H3.956
			v34.324H8.71v-14.459h7.229h0.521c2.345,0,4.104-0.131,5.146-0.326c1.106-0.195,2.148-0.586,2.931-1.041
			c1.498-0.913,2.605-2.085,3.385-3.518c0.717-1.434,1.109-3.127,1.109-5.08c0-2.02-0.392-3.713-1.109-5.211
			C27.143,200.245,26.036,199.073,24.603,198.356z M22.583,211.448c-1.106,0.847-3.061,1.302-5.862,1.302h-0.261H8.71v-11.528h7.75
			h0.652c2.54,0,4.364,0.457,5.47,1.369c1.107,0.846,1.629,2.344,1.629,4.363C24.212,209.103,23.691,210.601,22.583,211.448z"/>
		<path fill="#FFFFFF" d="M56.842,218.417c0,3.191-0.716,5.535-2.214,7.099c-1.498,1.563-3.712,2.345-6.774,2.345
			c-3.062,0-5.276-0.781-6.773-2.345c-1.434-1.498-2.149-3.907-2.149-7.099v-21.363h-4.755v21.298c0,4.689,1.106,8.142,3.256,10.486
			c2.214,2.345,5.471,3.517,9.9,3.517c4.689,0,8.271-1.172,10.681-3.517c2.41-2.409,3.647-5.862,3.647-10.486v-21.298h-4.82V218.417
			z"/>
		<path fill="#FFFFFF" d="M90.188,225.581c-1.824,1.759-4.232,2.605-7.1,2.605c-3.32,0-5.991-1.238-8.075-3.777
			c-2.02-2.541-3.062-5.928-3.062-10.096c0-4.494,0.977-7.945,2.997-10.355c1.954-2.475,4.689-3.648,8.207-3.648
			c2.668,0,4.82,0.587,6.514,1.824c1.627,1.172,2.734,2.931,3.191,5.21h4.623c-0.391-3.451-1.822-6.187-4.363-8.206
			c-2.541-2.019-5.797-2.996-9.77-2.996c-4.951,0-8.923,1.564-11.854,4.755c-2.932,3.126-4.429,7.425-4.429,12.831
			c0,5.796,1.432,10.355,4.232,13.678c2.802,3.321,6.644,4.949,11.529,4.949c4.299,0,7.816-1.236,10.551-3.712
			c2.672-2.476,4.17-5.862,4.365-10.03H93.12C92.989,221.478,92.013,223.822,90.188,225.581z"/>
		<path fill="#FFFFFF" d="M123.665,198.356c-0.846-0.521-1.822-0.847-2.93-1.042c-1.105-0.195-2.734-0.261-4.82-0.261h-0.391
			h-12.504v34.324h4.754v-14.459h7.229h0.521c2.346,0,4.039-0.131,5.08-0.326c1.172-0.195,2.148-0.586,2.998-1.041
			c1.496-0.913,2.604-2.085,3.32-3.518c0.781-1.434,1.172-3.127,1.172-5.08c0-2.02-0.391-3.713-1.172-5.211
			C126.206,200.245,125.099,199.073,123.665,198.356z M121.581,211.448c-1.041,0.847-2.994,1.302-5.795,1.302h-0.262h-7.75v-11.528
			h7.75h0.586c2.605,0,4.43,0.457,5.537,1.369c1.105,0.846,1.627,2.344,1.627,4.363
			C123.274,209.103,122.688,210.601,121.581,211.448z"/>
		<path fill="#FFFFFF" d="M159.292,229.163c-0.26-0.586-0.389-1.498-0.52-2.734l-0.391-5.667c-0.131-2.085-0.521-3.583-1.043-4.494
			c-0.586-0.847-1.564-1.499-2.932-1.89c1.564-0.716,2.801-1.758,3.584-3.061c0.846-1.303,1.236-2.931,1.236-4.754
			c0-1.955-0.391-3.582-1.172-5.016c-0.783-1.434-1.889-2.539-3.387-3.322c-0.783-0.391-1.76-0.716-2.801-0.911
			c-1.043-0.195-2.67-0.261-4.82-0.261h-0.846h-12.83v34.324h4.754v-14.721h7.75h0.326c3.125,0.066,5.145,0.392,5.992,1.043
			c0.846,0.717,1.301,2.15,1.496,4.494l0.262,4.494v0.131c0.195,2.344,0.521,3.842,0.91,4.559h5.537v-0.912
			C159.878,230.205,159.554,229.749,159.292,229.163z M152.454,211.317c-1.172,0.912-3.256,1.367-6.252,1.367h-8.143v-11.593h8.143
			c3.125,0,5.209,0.392,6.383,1.237c1.172,0.847,1.691,2.279,1.691,4.299C154.276,208.843,153.69,210.405,152.454,211.317z"/>
		<path fill="#FFFFFF" d="M142.099,117.793c-0.262,0.326-0.521,0.651-0.781,1.042c-1.369,2.344-0.979,5.21,0.781,7.099
			c0.455,0.456,0.912,0.847,1.498,1.173c0.977,0.521,2.082,0.781,3.125,0.781c2.15,0,4.234-1.042,5.342-2.996
			c1.693-2.865,0.717-6.643-2.279-8.272c-0.977-0.585-2.02-0.847-3.063-0.847C144.964,115.84,143.271,116.49,142.099,117.793z
			 M150.37,123.916c-0.781,1.368-2.215,2.084-3.648,2.084c-0.717,0-1.498-0.196-2.148-0.521c-2.02-1.172-2.736-3.712-1.563-5.666
			c0.781-1.368,2.213-2.084,3.711-2.084c0.719,0,1.434,0.13,2.086,0.521C150.89,119.421,151.542,121.961,150.37,123.916z"/>
		<path fill="#FFFFFF" d="M39.647,73.374l-2.67-1.498l-0.716-0.391l0.716-1.172l0.26-0.521l0.912-1.563l-1.172-0.651l-0.391-0.26
			l-1.889-1.042l-1.564-0.912l-1.562,2.67l-0.39,0.586l-3.323-1.889l-0.13,0.131l-1.889,3.191l-0.586,0.977l-0.325,0.586
			l0.325,0.261l3.062,1.693l-3.062,5.08l-1.433,2.41l1.433,0.847l2.02,1.107l1.628,0.912l0.912-1.563l1.759-2.931l1.758-2.996
			l3.387,1.889l0.261-0.391L39.647,73.374z M36.066,75.849l-3.388-1.889l-0.911,1.563l-0.195,0.326l-3.323,5.601l-1.888-1.042
			l4.429-7.49l-3.322-1.953l1.042-1.759l3.061,1.694l0.325,0.195l1.89-3.256l1.823,1.042l-1.89,3.257l3.257,1.824l0.13,0.064
			l-0.13,0.261L36.066,75.849z"/>
		<path fill="#FFFFFF" d="M139.036,112.583c0.977,0.521,2.02,0.782,3.063,0.782c1.758,0,3.451-0.717,4.623-2.02
			c0.262-0.26,0.521-0.651,0.781-1.042c1.369-2.279,0.979-5.146-0.781-7.034c-0.455-0.456-0.91-0.912-1.498-1.238
			c-0.977-0.521-2.084-0.781-3.125-0.781c-1.76,0-3.453,0.717-4.625,2.083c-0.26,0.261-0.521,0.586-0.717,0.912
			c-1.365,2.345-0.977,5.146,0.717,7.034C137.864,111.801,138.386,112.191,139.036,112.583z M138.452,105.223
			c0.781-1.303,2.213-2.084,3.646-2.084c0.715,0,1.498,0.195,2.148,0.586c2.02,1.107,2.736,3.647,1.564,5.667
			c-0.781,1.302-2.215,2.084-3.713,2.084c-0.717,0-1.434-0.196-2.086-0.586C137.929,109.782,137.278,107.177,138.452,105.223z"/>
		<polygon fill="#FFFFFF" points="71.235,111.15 56.908,102.942 50.525,99.296 50.525,131.34 56.908,135.052 71.235,143.193 
			79.247,147.818 80.094,148.274 80.094,116.229 79.247,115.708 		"/>
		<polygon fill="#FFFFFF" points="79.247,112.974 80.028,113.364 80.028,96.365 79.247,95.974 71.235,91.35 64.266,87.377 
			64.266,104.311 71.235,108.284 		"/>
		<path fill="#FFFFFF" d="M125.815,122.808l-0.064,0.065c-1.043,1.889-0.979,4.103,0,5.862c0.521,0.977,1.301,1.758,2.344,2.344
			c0.977,0.521,2.02,0.782,3.061,0.782c2.15,0,4.236-1.042,5.406-2.996c1.695-2.931,0.652-6.644-2.279-8.272
			c-0.977-0.586-2.02-0.847-3.127-0.847C129.007,119.747,126.987,120.854,125.815,122.808z M134.868,127.888
			c-0.781,1.368-2.213,2.084-3.713,2.084c-0.715,0-1.432-0.196-2.084-0.521c-2.02-1.172-2.734-3.712-1.563-5.731
			c0.781-1.302,2.215-2.019,3.646-2.019c0.717,0,1.5,0.131,2.15,0.521C135.325,123.395,136.04,125.934,134.868,127.888z"/>
		<polygon fill="#FFFFFF" points="91.491,108.284 98.396,104.311 98.396,87.377 91.491,91.285 83.479,95.909 82.634,96.365 
			82.634,113.364 83.479,112.908 		"/>
		<polygon fill="#FFFFFF" points="91.491,111.15 83.479,115.708 82.634,116.229 82.634,148.274 83.479,147.818 91.491,143.193 
			105.757,135.052 112.202,131.34 112.202,99.296 105.757,103.009 		"/>
		<path fill="#FFFFFF" d="M123.079,73.374l2.672,4.56l0.26,0.391l3.387-1.889l1.758,2.996l1.76,2.931l0.912,1.563l1.564-0.912
			l2.082-1.107l1.367-0.847l-1.367-2.41l-3.061-5.08l3.061-1.693l0.326-0.261l-0.326-0.586l-0.586-0.977l-1.889-3.191l-0.131-0.131
			l-3.387,1.889l-0.326-0.586l-1.561-2.67l-1.564,0.912l-1.891,1.042l-0.389,0.26l-1.174,0.651l0.914,1.563l0.26,0.521l0.717,1.172
			l-0.717,0.391L123.079,73.374z M127.052,68.88l1.889-1.042l1.891,3.256l0.324-0.195l3.063-1.694l1.043,1.759l-3.389,1.953
			l4.494,7.49l-1.887,1.042l-3.324-5.601l-0.195-0.326l-0.91-1.563l-3.387,1.889l-0.912-1.563l-0.131-0.261l0.131-0.064l3.256-1.824
			L127.052,68.88z"/>
		<path fill="#FFFFFF" d="M16.004,127.888c1.043,0,2.15-0.261,3.127-0.781c0.587-0.326,1.042-0.717,1.498-1.173
			c1.759-1.889,2.149-4.754,0.716-7.099c-0.196-0.391-0.456-0.717-0.716-1.042c-1.237-1.303-2.866-1.953-4.625-2.02
			c-1.041,0-2.083,0.261-3.061,0.847c-2.995,1.629-3.974,5.407-2.279,8.272C11.772,126.846,13.855,127.888,16.004,127.888z
			 M13.921,118.249c0.65-0.391,1.368-0.521,2.083-0.521c1.499,0,2.932,0.716,3.714,2.084c1.172,1.954,0.456,4.494-1.564,5.666
			c-0.716,0.326-1.433,0.521-2.15,0.521c-1.433,0-2.865-0.716-3.646-2.084C11.185,121.961,11.837,119.421,13.921,118.249z"/>
		<path fill="#FFFFFF" d="M16.004,133.49c1.564,0,3.127-0.261,4.625-0.847c0.325-0.13,0.586-0.325,0.912-0.456
			c0.977,1.498,2.279,2.67,3.712,3.518c1.89,1.171,4.104,1.758,6.318,1.758c1.824,0,3.646-0.392,5.406-1.237
			c0.195-0.131,0.325-0.196,0.521-0.326c1.629-0.912,2.997-2.149,3.974-3.582c0.846-1.238,1.433-2.605,1.694-4.038
			c0.585,4.95,2.083,9.574,4.427,13.742c0.328,0.521,0.653,1.107,0.978,1.629c0.585,0.912,1.238,1.823,1.889,2.735
			c1.888,2.475,4.038,4.688,6.448,6.644c4.167,3.386,8.987,5.861,14.328,7.293c2.541,0.718,5.276,1.174,8.012,1.303
			c0.717,0,1.367,0.066,2.085,0.066c0.716,0,1.433-0.066,2.147-0.066c2.736-0.194,5.408-0.585,8.012-1.303
			c5.277-1.432,10.162-3.973,14.266-7.293c3.254-2.671,6.055-5.862,8.334-9.444c0.328-0.587,0.717-1.173,1.043-1.824
			c2.279-4.167,3.842-8.857,4.299-13.873c0.326,1.563,0.912,3.062,1.822,4.429c0.979,1.433,2.348,2.67,3.975,3.582
			c0.195,0.13,0.324,0.195,0.521,0.326c1.758,0.846,3.582,1.237,5.404,1.237c2.217,0,4.43-0.587,6.318-1.758
			c1.434-0.847,2.736-2.02,3.715-3.518c0.258,0.13,0.584,0.325,0.91,0.456c1.498,0.586,3.063,0.847,4.623,0.847
			c4.104,0,8.141-2.084,10.293-5.797c0.977-1.693,1.496-3.517,1.627-5.275v-1.042c-0.195-3.713-2.148-7.295-5.602-9.379
			c2.41-5.406,0.326-11.789-4.949-14.785c-0.457-0.26-0.912-0.456-1.369-0.651c-1.498-0.652-3.061-0.912-4.623-0.912
			c-1.564,0-3.191,0.326-4.625,0.912c-2.346,0.977-4.363,2.605-5.666,4.885c-0.26,0.391-0.457,0.781-0.652,1.172
			c-0.846,1.954-1.105,4.038-0.91,5.992l-4.494-2.54l-4.496-2.475l-1.625-0.977V83.339l1.625,2.801l2.152,3.517l2.344-1.303
			l1.236-0.716l4.168,7.164l0.262,0.391l4.039-2.28l-2.215-3.712l0.846-0.456l2.215,3.712l1.172-0.651l2.865-1.628l-2.213-3.712
			l0.781-0.521l2.215,3.778l0.977-0.586l3.063-1.694l-2.217-3.712l0.848-0.521l2.213,3.777l0.717-0.456l3.322-1.824l-3.322-5.602
			l-1.172-1.954l1.172-0.651l2.477-1.368l-2.477-4.168l-2.93-4.885v-0.065l-1.693,0.977l-1.889,1.107l-1.041-1.758l1.756-1.043
			l1.174-0.651l0.65-0.39l-0.65-1.108l-3.453-5.861l3.453-1.954l3.387-1.889c0.52-0.26,0.912-0.651,1.236-1.107
			c0.781-1.172,0.912-2.735,0.131-4.038c0-0.065-0.064-0.13-0.131-0.195c-1.043-1.498-2.93-2.019-4.623-1.368
			c-0.131,0.065-0.326,0.13-0.455,0.195l-4.17,2.41l-6.318,3.517l-0.064,0.065c-1.041-0.911-2.605-1.107-3.775-0.456l-1.564,0.847
			l-4.496,2.54l-6.121,3.517l-1.043,0.586l-2.604,1.433l1.107,1.953l-1.172,0.652c-0.977-5.927-2.932-11.724-5.666-17.129
			c-3.584-6.969-8.404-13.287-14.266-18.627c-2.02-1.824-4.168-3.518-6.447-5.146v-4.038h4.754h1.172V11.5h-1.824l-4.102,0.065
			V7.592V5.768h-1.564h-4.232h-1.889v1.824v3.973L73.32,11.5h-1.889v7.556h1.173h4.754v4.038c-2.149,1.498-4.168,3.192-6.123,4.885
			C65.375,33.254,60.49,39.505,56.908,46.41c-2.802,5.471-4.821,11.397-5.862,17.456l-0.586-0.326l-0.392-0.196l0.392-0.651
			l0.781-1.302l-0.781-0.457l-1.889-1.042l-0.978-0.521l-6.121-3.517l-4.494-2.54l-1.564-0.847
			c-1.171-0.651-2.735-0.455-3.776,0.456l-0.065-0.065l-6.318-3.517l-4.167-2.41c-0.131-0.065-0.327-0.13-0.457-0.195
			c-1.693-0.651-3.582-0.13-4.625,1.368c-0.065,0.065-0.13,0.13-0.13,0.195c-0.781,1.303-0.65,2.865,0.13,4.038
			c0.327,0.456,0.717,0.847,1.239,1.107l3.386,1.889l3.453,1.954l-3.453,5.861l-0.651,1.108l0.651,0.39l1.173,0.651l1.758,1.043
			l-1.042,1.758l-1.889-1.107l-1.693-0.977v0.065l-2.932,4.885l-2.475,4.168l2.475,1.368l1.174,0.651l-1.174,1.954l-3.32,5.602
			l3.32,1.824l0.717,0.456l2.214-3.777l0.847,0.521l-2.214,3.712l3.061,1.694l0.978,0.586l2.213-3.778l0.782,0.521l-2.215,3.712
			l2.865,1.628l1.172,0.651l2.215-3.712l0.847,0.456l-2.215,3.712l4.038,2.28l0.261-0.391l4.168-7.164l1.238,0.716l2.344,1.303
			l2.15-3.517l1.498-2.605v19.148l-1.498,0.847l-4.494,2.54l-4.494,2.54c0.195-1.954-0.065-4.038-0.912-5.992
			c-0.195-0.391-0.39-0.782-0.652-1.172c-1.302-2.28-3.322-3.908-5.667-4.885c-1.433-0.586-3.061-0.912-4.624-0.912
			c-1.563,0-3.126,0.26-4.625,0.912c-0.456,0.195-0.911,0.391-1.366,0.651c-5.276,2.996-7.36,9.379-4.951,14.785
			c-3.452,2.084-5.406,5.666-5.602,9.379v1.042c0.132,1.758,0.587,3.582,1.629,5.275C7.864,131.406,11.903,133.49,16.004,133.49z
			 M117.806,124.501c-0.066,4.625-0.979,9.054-2.672,13.157c-0.326,0.717-0.715,1.434-1.043,2.214
			c-2.084,4.038-4.949,7.751-8.334,10.747c-4.039,3.582-8.926,6.252-14.266,7.816c-2.539,0.716-5.275,1.172-8.012,1.367
			c-0.715,0-1.432,0.064-2.147,0.064c-0.718,0-1.368-0.064-2.085-0.064c-2.735-0.195-5.471-0.651-8.012-1.367
			c-5.405-1.499-10.29-4.17-14.328-7.752c-2.476-2.214-4.625-4.754-6.448-7.49c-0.651-1.041-1.304-2.148-1.889-3.256
			c-0.325-0.717-0.65-1.368-0.978-2.02c-1.757-4.168-2.735-8.662-2.801-13.417V82.427h2.801h0.978h1.889h6.448h14.328h8.012h4.232
			h8.012h14.266h8.334h1.043h2.672V124.501z M55.475,80.603c-1.759-1.237-3.452-2.67-5.015-4.233
			c-0.651-0.651-1.304-1.303-1.889-2.019l-0.065-0.131l0.065-0.195l1.302-2.149l0.587,0.325l6.448,3.648l8.467,4.754h-8.467H55.475z
			 M67.263,66.145h3.973h8.012h1.107c-0.131,1.954-0.521,3.908-1.107,5.731c-0.65,2.214-1.628,4.298-2.866,6.317l-5.146-2.93
			l-5.796-3.257C66.482,70.313,67.133,68.359,67.263,66.145z M63.876,71.094l-6.968-3.908l-1.824-1.042h1.824h8.532
			C65.245,68.033,64.723,69.661,63.876,71.094z M79.247,77.151c0.912-1.888,1.627-3.843,2.148-5.796
			c0.521,1.954,1.174,3.908,2.084,5.731c0.326,0.716,0.719,1.433,1.107,2.085l-1.107,0.651l-1.367,0.781H80.68l-1.433-0.781
			l-1.107-0.651C78.53,78.519,78.921,77.802,79.247,77.151z M82.372,66.145h1.107h8.012h3.906c0.197,2.214,0.85,4.168,1.891,5.861
			l-5.797,3.257l-5.146,2.93c-1.236-2.019-2.213-4.104-2.865-6.317C82.894,70.052,82.503,68.098,82.372,66.145z M97.353,80.603
			l8.404-4.754l7.098-3.973l1.236,2.019v0.13v0.065c-2.084,2.476-4.492,4.625-7.164,6.513h-1.17H97.353z M119.63,122.874V111.28
			l1.625,0.912l4.496,2.54l0.717,0.391c-0.262,0.065-0.457,0.195-0.717,0.326c-1.76,0.846-3.32,2.149-4.496,3.842
			c-0.129,0.261-0.26,0.456-0.389,0.716C120.278,120.919,119.888,121.896,119.63,122.874z M121.255,105.679l4.496,2.475l5.08,2.866
			l0.324,0.195l2.477,1.433c-1.955-2.996-2.215-6.968-0.26-10.291c0.977-1.628,2.408-2.931,4.102-3.777
			c1.434-0.717,2.996-1.107,4.625-1.107c1.563,0,3.125,0.325,4.623,1.042c0.131,0.065,0.262,0.196,0.391,0.261
			c4.82,2.735,6.514,8.728,3.713,13.482l-0.064,0.065c0,0,0,0,0,0.066c0,0,0,0-0.064,0c0,0.065,0,0.065,0,0.065
			c-0.066,0.065-0.131,0.195-0.197,0.26c0.457,0.196,0.848,0.391,1.238,0.586c4.82,2.736,6.449,8.793,3.713,13.482
			c-1.889,3.126-5.275,4.885-8.729,4.951c-1.561,0-3.125-0.391-4.623-1.108c-0.131-0.065-0.262-0.13-0.455-0.261
			c-0.393-0.195-0.783-0.456-1.174-0.781c-0.131,0.391-0.324,0.781-0.586,1.172c-0.65,1.107-1.498,2.019-2.41,2.801
			c-1.824,1.368-4.037,2.084-6.318,2.084c-1.691,0.066-3.451-0.39-5.016-1.303c-0.129-0.065-0.258-0.13-0.389-0.195
			c-2.41-1.499-3.975-3.908-4.496-6.579c-0.064-0.325-0.064-0.716-0.129-1.042c-0.064-0.847,0-1.693,0.129-2.541
			c0.197-1.042,0.588-2.084,1.176-3.126c0.844-1.368,2.018-2.541,3.32-3.322c1.629-1.042,3.518-1.563,5.404-1.563
			c0.195,0,0.326,0,0.521,0l-0.521-0.261l-2.279-1.302l-0.586-0.326l-2.539-1.433l-4.496-2.54l-1.625-0.912v-4.494L121.255,105.679z
			 M118.001,80.603h-2.867h-1.043h-4.102c1.434-1.172,2.801-2.41,4.102-3.777c0.328-0.391,0.652-0.782,1.043-1.173l1.822,3.192
			l3.648-2.019l0.65,1.172l0.393,0.586l-0.393,0.196L118.001,80.603z M114.679,70.834l0.455-0.261l1.305-0.716l3.061,5.145
			l-1.76,0.977l-2.605-4.494L114.679,70.834z M125.751,85.944l-1.564,0.912l-2.932-4.885l-0.324-0.586l0.324-0.196l1.434-0.782
			l3.063,5.211l0.131,0.26L125.751,85.944z M142.099,69.401l0.912-0.521l3.256,5.471l-1.758,0.977l-2.41-4.038l-0.848-1.368
			L142.099,69.401z M139.884,63.539l-1.824,0.977l-0.586-1.106l-2.475-4.104l1.824-0.977l0.65,1.107L139.884,63.539z
			 M137.474,51.425l4.625-2.671l0.326-0.13c0.91-0.586,2.148-0.261,2.736,0.716v-0.065c0.518,0.977,0.193,2.15-0.783,2.67
			l-2.279,1.303l-4.625,2.605l-3.387,1.889l-1.955-3.321L137.474,51.425z M114.091,62.041l1.043-0.585l6.121-3.518l4.496-2.54
			l2.477-1.368c0.713-0.391,1.367-0.261,1.822,0.456l1.105,1.889l6.318,10.616l4.625,7.946l4.623,7.751l0.781,1.302l-0.781,0.457
			h-0.064l-2.215-3.712l-2.344,1.367l-1.693,0.912l1.693,2.866l0.521,0.912l-0.521,0.26l-0.326,0.196l-2.148-3.778l-2.15,1.238
			l-1.889,1.042l1.889,3.191l0.326,0.586l-0.326,0.196l-0.521,0.26l-2.215-3.777l-3.582,2.019l-0.455,0.26l0.455,0.782l1.76,2.996
			l-0.783,0.456l-0.977-1.563l-5.404-9.184l-4.496-7.62l-6.121-10.421l-1.043-1.758l-0.063-0.13H114.091z M113.571,64.907
			l0.52,0.912l1.043,1.758l0.391,0.651l-0.391,0.261l-1.043,0.586l-8.334,4.689l-12.115,6.838h-2.15h-5.73l5.73-3.256l14.266-8.012
			L113.571,64.907z M97.288,66.145h8.469h1.889l-1.889,1.107l-6.904,3.842C98.005,69.661,97.483,68.033,97.288,66.145z
			 M73.32,17.231v-3.908h4.039h1.889V7.592h3.973v5.731h0.26h1.564h4.102v3.908h-5.666h-0.26v5.667h-3.973v-5.667H73.32z
			 M71.235,30.648c2.214-2.149,4.625-4.103,7.164-5.927h0.848h4.232h0.588c2.605,1.889,5.078,3.974,7.424,6.188
			c0.717,0.717,1.434,1.434,2.15,2.149c-0.652,0.521-1.367,0.977-2.15,1.303c-2.604,1.172-5.602,0.977-8.012-0.521
			c-0.846-0.521-1.563-1.173-2.213-1.954c-0.587,0.716-1.303,1.302-2.02,1.824c-2.41,1.563-5.407,1.823-8.012,0.781
			c-0.846-0.325-1.693-0.846-2.41-1.433C69.609,32.211,70.389,31.43,71.235,30.648z M67.524,34.426
			c1.106,0.977,2.345,1.628,3.711,2.084c2.605,0.847,5.538,0.586,8.012-0.651c0.717-0.391,1.367-0.847,2.02-1.368
			c0.715,0.586,1.367,1.107,2.213,1.498c2.477,1.173,5.408,1.368,8.012,0.391c1.238-0.391,2.41-1.042,3.389-1.954
			c1.041,1.107,1.951,2.214,2.865,3.387h-6.254h-8.012h-4.232h-8.012h-6.578C65.569,36.64,66.546,35.533,67.524,34.426z
			 M63.29,39.702h7.945h8.012h4.232h8.012h7.621v-0.065c1.303,1.823,2.541,3.712,3.646,5.731c-3.518,1.889-7.424,2.671-11.268,2.476
			c-2.734-0.196-5.471-0.846-8.012-2.02c-0.781-0.391-1.498-0.781-2.213-1.172c-0.652,0.391-1.303,0.716-2.02,1.043
			c-2.54,1.237-5.276,1.888-8.012,2.083c-3.973,0.326-7.945-0.521-11.593-2.41C60.75,43.414,61.987,41.524,63.29,39.702z
			 M56.908,50.838c0.586-1.368,1.238-2.605,1.888-3.908c3.844,2.149,8.141,3.062,12.439,2.735c2.736-0.129,5.407-0.846,8.012-1.954
			c0.717-0.326,1.367-0.651,2.02-1.042c0.715,0.391,1.432,0.781,2.213,1.107c2.607,1.107,5.277,1.759,8.012,1.954
			c4.17,0.195,8.336-0.716,12.18-2.801c0.717,1.433,1.367,2.801,2.02,4.298H91.491h-8.012h-4.232h-8.012H56.908h-0.131
			C56.777,51.099,56.842,50.969,56.908,50.838z M55.996,53.119h0.912h14.328h8.012h4.232h8.012h14.266h0.715
			c0.455,1.236,0.91,2.539,1.303,3.842c-0.65,0.326-1.369,0.651-2.018,0.912c-3.453,1.433-7.297,2.279-11.008,2.279
			c-1.041,0-2.15-0.065-3.258-0.195c-2.734-0.326-5.471-1.042-8.012-2.084c-0.781-0.326-1.498-0.717-2.213-1.107
			c-0.652,0.391-1.303,0.716-2.02,0.977c-2.54,1.107-5.276,1.824-8.012,2.215c-1.171,0.13-2.344,0.195-3.516,0.195
			c-3.647,0-7.425-0.782-10.812-2.214c-0.782-0.326-1.498-0.651-2.28-1.042C55.083,55.593,55.475,54.355,55.996,53.119z
			 M54.106,58.785c0.913,0.455,1.825,0.846,2.802,1.237c3.387,1.302,7.164,2.019,10.812,2.019c1.172,0,2.345-0.064,3.516-0.195
			c2.736-0.326,5.472-0.977,8.012-2.019c0.717-0.26,1.367-0.587,2.02-0.846c0.715,0.325,1.432,0.65,2.213,0.977
			c2.541,0.977,5.277,1.628,8.012,1.889c1.107,0.131,2.217,0.195,3.258,0.195c3.711,0,7.555-0.781,11.008-2.084
			c0.846-0.326,1.758-0.717,2.539-1.107c0.521,1.759,0.91,3.583,1.238,5.406h-3.777H91.491h-8.012h-4.232h-8.012H56.908h-3.973
			C53.261,62.432,53.65,60.608,54.106,58.785z M50.46,65.623l6.448,3.648l14.328,8.076l5.733,3.256h-5.733h-2.148l-12.179-6.838
			l-6.448-3.647l-1.889-1.042l-0.978-0.586l-0.391-0.261l0.391-0.651l0.978-1.693l0.585-0.978L50.46,65.623z M48.05,70.834
			l-0.458,0.65l-2.605,4.494l-1.757-0.977l3.061-5.145l1.301,0.716L48.05,70.834z M20.629,53.248l-2.28-1.303
			c-0.977-0.52-1.302-1.693-0.781-2.67v0.065c0.585-0.977,1.759-1.302,2.735-0.716l0.326,0.13l4.624,2.671l5.34,2.996l-1.953,3.321
			l-3.387-1.889L20.629,53.248z M22.844,63.539l2.41-4.103l0.652-1.107l1.758,0.977l-2.41,4.104l-0.65,1.106L22.844,63.539z
			 M16.461,74.351l3.257-5.471l0.911,0.521l0.848,0.521l-0.848,1.368l-2.41,4.038L16.461,74.351z M31.572,91.155l-0.978,1.563
			l-0.781-0.456l1.759-2.996l0.391-0.782l-0.391-0.26l-3.583-2.019l-2.214,3.777l-0.521-0.26l-0.325-0.196l0.325-0.586l1.89-3.191
			l-1.89-1.042l-2.149-1.238l-2.214,3.778l-0.261-0.196l-0.521-0.26l0.521-0.912l1.694-2.866l-1.694-0.912l-2.345-1.367
			l-2.215,3.712h-0.065l-0.78-0.457l0.78-1.302l4.625-7.751l4.624-7.946l6.318-10.616l1.106-1.889
			c0.392-0.717,1.108-0.847,1.824-0.456l2.475,1.368l4.494,2.54l6.121,3.518l0.978,0.521l0.13,0.064l-0.13,0.195l-0.978,1.694
			l-6.121,10.421l-4.494,7.62L31.572,91.155z M41.472,81.971l-2.931,4.885l-1.563-0.912l-0.196-0.065l0.196-0.26l3.062-5.211
			l1.433,0.782l0.325,0.196L41.472,81.971z M41.472,78.78l-0.391-0.196l0.391-0.586l0.65-1.172l3.583,2.019h0.066l1.758-2.996
			l0.064,0.13c0.328,0.391,0.653,0.716,0.978,1.107c0.65,0.586,1.238,1.238,1.889,1.824c0.651,0.586,1.302,1.172,2.019,1.693H50.46
			h-1.889h-0.978h-2.931L41.472,78.78z M42.969,122.482c-0.261-0.847-0.651-1.693-1.107-2.475c-0.13-0.261-0.261-0.456-0.391-0.716
			c-1.174-1.693-2.735-2.996-4.494-3.842c-0.261-0.131-0.456-0.261-0.716-0.326l0.716-0.391l4.494-2.54l1.498-0.847V122.482z
			 M10.99,113.299c0.391-0.195,0.782-0.391,1.239-0.586c-0.066-0.065-0.131-0.195-0.196-0.26c0,0,0,0,0-0.065
			c-0.066,0-0.066,0-0.066,0c0-0.066,0-0.066,0-0.066l-0.064-0.065c-2.801-4.754-1.108-10.747,3.646-13.482
			c0.196-0.065,0.326-0.195,0.456-0.261c1.499-0.716,3.062-1.042,4.625-1.042c1.628,0,3.191,0.39,4.624,1.107
			c1.694,0.846,3.126,2.149,4.104,3.777c1.954,3.322,1.693,7.295-0.26,10.291l2.475-1.433l0.325-0.195l5.081-2.866l4.494-2.475
			l1.498-0.912v4.494l-1.498,0.847l-4.494,2.54l-2.54,1.433l-0.586,0.326l-2.28,1.302l-0.521,0.261c0.195,0,0.326,0,0.521,0
			c1.89,0,3.777,0.521,5.406,1.563c1.302,0.781,2.475,1.954,3.32,3.322c0.588,1.042,0.913,2.084,1.174,3.126
			c0.13,0.847,0.195,1.693,0.13,2.541c-0.065,0.325-0.065,0.716-0.13,1.042c-0.521,2.671-2.084,5.08-4.494,6.579
			c-0.131,0.065-0.261,0.13-0.391,0.195c-1.564,0.913-3.322,1.369-5.015,1.303c-2.28,0-4.494-0.716-6.318-2.084
			c-0.911-0.782-1.758-1.693-2.41-2.801c-0.26-0.391-0.456-0.781-0.586-1.172c-0.391,0.326-0.781,0.586-1.238,0.781
			c-0.129,0.13-0.26,0.196-0.39,0.261c-1.498,0.717-3.061,1.108-4.625,1.108c-3.451-0.065-6.839-1.824-8.727-4.951
			C4.542,122.092,6.17,116.035,10.99,113.299z"/>
		<path fill="#FFFFFF" d="M26.166,128.865c1.172,1.954,3.257,2.996,5.406,2.996c1.042,0,2.084-0.261,3.061-0.782
			c1.042-0.586,1.825-1.367,2.345-2.344c0.977-1.759,1.041-3.973,0-5.862l-0.065-0.065c-1.173-1.954-3.256-3.062-5.341-3.062
			c-1.107,0-2.149,0.261-3.128,0.847C25.514,122.222,24.472,125.934,26.166,128.865z M29.422,122.222
			c0.651-0.39,1.368-0.521,2.149-0.521c1.432,0,2.866,0.717,3.646,2.019c1.173,2.02,0.457,4.56-1.562,5.731
			c-0.652,0.326-1.369,0.521-2.084,0.521c-1.499,0-2.931-0.716-3.713-2.084C26.687,125.934,27.403,123.395,29.422,122.222z"/>
		<path fill="#FFFFFF" d="M16.004,111.345c1.174,1.303,2.867,2.02,4.625,2.02c1.042,0,2.084-0.261,3.062-0.782
			c0.651-0.391,1.172-0.782,1.563-1.303c1.694-1.888,2.084-4.689,0.717-7.034c-0.195-0.326-0.456-0.651-0.717-0.912
			c-1.171-1.367-2.865-2.083-4.624-2.083c-1.042,0-2.149,0.26-3.126,0.781c-0.586,0.326-1.042,0.782-1.499,1.238
			c-1.758,1.888-2.149,4.754-0.78,7.034C15.484,110.694,15.745,111.084,16.004,111.345z M18.48,103.725
			c0.651-0.391,1.433-0.586,2.149-0.586c1.434,0,2.866,0.781,3.648,2.084c1.171,1.954,0.456,4.559-1.564,5.667
			c-0.65,0.391-1.368,0.586-2.084,0.586c-1.498,0-2.931-0.782-3.712-2.084C15.745,107.372,16.461,104.832,18.48,103.725z"/>
		<path fill="#FFFFFF" d="M34.698,146.094l0.325,0.779l0.065-0.064c0.782-0.325,1.238-0.781,1.499-1.433
			c0.26-0.586,0.195-1.302-0.13-2.084c-0.327-0.716-0.847-1.172-1.564-1.433c-0.716-0.326-1.431-0.261-2.149,0.064
			c-0.65,0.261-1.106,0.652-1.433,1.173c-0.26,0.521-0.391,1.172-0.325,2.084c0,0.13,0,0.325,0,0.651
			c0.065,0.651,0,1.106-0.065,1.367c-0.065,0.326-0.196,0.521-0.391,0.717c-0.13,0.195-0.391,0.391-0.651,0.521
			c-0.651,0.26-1.172,0.26-1.693,0.064c-0.521-0.195-0.912-0.586-1.172-1.172c-0.26-0.521-0.26-1.042,0-1.563
			c0.195-0.456,0.716-0.847,1.367-1.172l-0.391-0.847c-0.911,0.455-1.563,1.042-1.823,1.693c-0.326,0.717-0.26,1.432,0.065,2.279
			c0.392,0.847,0.978,1.367,1.693,1.628c0.652,0.261,1.434,0.261,2.28-0.13c0.652-0.261,1.107-0.717,1.369-1.172
			c0.26-0.521,0.391-1.238,0.325-2.15c0-0.064,0-0.194,0-0.391c-0.065-0.847,0-1.498,0.196-1.822
			c0.065-0.196,0.195-0.392,0.391-0.521c0.195-0.196,0.39-0.326,0.586-0.392c0.521-0.261,1.042-0.261,1.563-0.064
			c0.456,0.13,0.847,0.521,1.042,0.978c0.26,0.52,0.26,0.976,0.065,1.367C35.61,145.441,35.218,145.832,34.698,146.094z"/>
		<path fill="#FFFFFF" d="M34.567,155.146c-0.847,0.456-1.563,0.586-2.215,0.586c-0.65-0.064-1.107-0.392-1.433-0.911
			c-0.391-0.651-0.326-1.303,0.196-1.954c0.456-0.717,1.368-1.433,2.801-2.215c1.366-0.847,2.54-1.237,3.385-1.303
			c0.847-0.13,1.434,0.196,1.825,0.847c0.325,0.521,0.325,0.978,0.13,1.498c-0.195,0.521-0.585,0.978-1.302,1.434l0.521,0.781
			c0.846-0.521,1.432-1.172,1.692-1.889c0.196-0.717,0.13-1.498-0.326-2.279c-0.585-0.912-1.366-1.368-2.409-1.303
			c-0.976,0-2.345,0.455-3.972,1.433c-1.694,0.911-2.737,1.823-3.258,2.671c-0.521,0.911-0.521,1.758,0,2.734
			c0.457,0.717,1.107,1.173,1.89,1.303c0.846,0.131,1.824-0.13,2.93-0.65L34.567,155.146z"/>
		<polygon fill="#FFFFFF" points="42.252,153.843 33.461,159.9 33.982,160.616 42.774,154.561 		"/>
		<polygon fill="#FFFFFF" points="42.578,163.026 43.166,162.506 40.951,159.835 43.881,157.426 46.421,160.422 47.072,159.9 
			43.881,156.188 35.675,162.896 38.867,166.544 39.517,166.022 36.978,163.092 40.298,160.355 		"/>
		<polygon fill="#FFFFFF" points="45.184,172.47 52.348,164.784 51.696,164.199 45.444,170.973 48.701,161.528 47.984,160.877 
			40.755,168.563 41.407,169.149 47.529,162.506 44.402,171.819 		"/>
		<polygon fill="#FFFFFF" points="55.345,167.781 57.363,169.149 57.885,168.433 53.065,165.306 52.543,165.958 54.562,167.325 
			49.156,175.271 49.873,175.792 		"/>
		<polygon fill="#FFFFFF" points="59.643,169.279 58.861,168.888 53.911,178.137 54.693,178.528 		"/>
		<path fill="#FFFFFF" d="M63.29,170.907l-1.628,2.149l-4.885,6.577l0.781,0.262l2.02-2.736l2.084,0.783l0.912,0.391l-0.325,3.387
			l0.847,0.324l1.171-10.811L63.29,170.907z M62.705,177.485l-1.043-0.391l-1.627-0.586l1.627-2.215l1.628-2.148L62.705,177.485z"/>
		<polygon fill="#FFFFFF" points="64.072,184.39 64.853,184.585 66.872,181.589 66.025,181.394 		"/>
		<polygon fill="#FFFFFF" points="72.474,173.447 71.562,173.317 73.06,184.063 74.102,184.129 78.204,174.099 77.358,174.034 
			73.776,182.827 		"/>
		<polygon fill="#FFFFFF" points="79.898,184.519 80.224,174.099 79.313,174.034 78.987,184.519 		"/>
		<polygon fill="#FFFFFF" points="87.192,173.903 81.462,174.163 81.462,175.011 83.872,174.88 84.327,184.519 85.239,184.454 
			84.782,174.815 87.192,174.75 		"/>
		<path fill="#FFFFFF" d="M90.253,173.447l-1.107,10.747l0.848-0.131l0.326-3.387l1.434-0.195l1.758-0.325l1.432,3.126l0.912-0.131
			l-4.102-8.793l-0.457-1.105L90.253,173.447z M93.185,179.439l-1.432,0.194l-1.434,0.262l0.588-5.406l0.846,1.889L93.185,179.439z"
			/>
		<polygon fill="#FFFFFF" points="106.472,178.724 102.825,180.156 101.196,176.249 104.454,174.945 104.126,174.229 
			100.872,175.466 99.437,172.015 103.085,170.581 102.825,169.8 98.265,171.559 102.237,181.263 106.733,179.505 		"/>
		<polygon fill="#FFFFFF" points="108.296,166.804 103.28,169.604 103.671,170.321 105.819,169.149 110.704,177.485 111.487,177.03 
			106.603,168.692 108.687,167.521 		"/>
		<polygon fill="#FFFFFF" points="115.329,161.008 111.683,164.264 118.847,172.015 119.563,171.363 116.11,167.585 
			118.716,165.306 118.194,164.72 115.589,166.999 112.983,164.199 115.915,161.659 		"/>
		<polygon fill="#FFFFFF" points="124.708,166.413 116.827,159.379 116.241,160.03 124.12,167.064 		"/>
		<path fill="#FFFFFF" d="M126.14,156.252c-0.91-0.65-1.691-1.106-2.408-1.367c-0.521-0.26-1.043-0.324-1.434-0.324
			c-1.043,0-1.953,0.52-2.799,1.691l-1.305,1.693l5.537,4.104l2.996,2.149l1.367-1.76c0.846-1.107,1.109-2.148,0.846-3.061
			C128.616,158.467,127.704,157.426,126.14,156.252z M127.38,162.05l-0.717,0.977l-2.932-2.149l-4.363-3.191l0.717-0.977
			c0.715-0.912,1.434-1.303,2.213-1.303c0.391,0,0.846,0.195,1.434,0.456c0.586,0.325,1.172,0.651,1.822,1.172
			c1.434,1.042,2.281,1.89,2.541,2.605C128.29,160.355,128.095,161.138,127.38,162.05z"/>
		<polygon fill="#FFFFFF" points="133.632,152.41 131.677,155.731 127.899,153.647 129.659,150.651 128.94,150.261 127.249,153.257 
			123.862,151.367 125.815,148.047 125.099,147.655 122.688,151.824 131.937,156.97 134.349,152.801 		"/>
		<path fill="#FFFFFF" d="M134.868,149.088c-0.586,0.131-1.172,0.065-1.889-0.195l-0.389,0.783c0.977,0.391,1.822,0.455,2.537,0.194
			c0.783-0.194,1.305-0.717,1.695-1.563s0.391-1.628,0.129-2.279c-0.26-0.717-0.848-1.237-1.691-1.628
			c-0.652-0.261-1.238-0.325-1.824-0.196c-0.521,0.131-1.107,0.587-1.824,1.173c-0.064,0.065-0.131,0.195-0.262,0.261
			c-0.65,0.651-1.105,1.042-1.498,1.172c-0.258,0.064-0.455,0.064-0.715,0.064c-0.197-0.064-0.455-0.129-0.717-0.194
			c-0.521-0.261-0.846-0.585-1.041-1.042c-0.197-0.521-0.197-0.978,0.064-1.498c0.195-0.521,0.52-0.782,0.977-0.977
			c0.391-0.131,0.912-0.065,1.498,0.13l0.326-0.782h-0.064c-0.717-0.325-1.434-0.39-2.086-0.131c-0.65,0.197-1.107,0.718-1.432,1.5
			c-0.326,0.716-0.391,1.432-0.131,2.083c0.262,0.717,0.783,1.173,1.498,1.498c0.652,0.325,1.303,0.392,1.889,0.261
			c0.521-0.13,1.172-0.521,1.824-1.107c0.064-0.13,0.26-0.261,0.457-0.455c0.455-0.521,0.846-0.782,1.105-0.912
			c0.262-0.131,0.521-0.195,0.781-0.195c0.262,0,0.521,0.064,0.848,0.195c0.586,0.26,0.977,0.65,1.17,1.106
			c0.197,0.521,0.197,1.042-0.129,1.694C135.78,148.567,135.392,148.893,134.868,149.088z"/>
	</g>
</g>
</svg>
